<svg width="16" height="16" viewBox="0 0 16 16" fill="none" xmlns="http://www.w3.org/2000/svg">
<g clip-path="url(#clip0)">
<path fill-rule="evenodd" clip-rule="evenodd" d="M7.87987 16C7.87987 16 13.6399 10.314 13.6399 6C13.6399 4.4087 13.033 2.88258 11.9528 1.75736C10.8726 0.632141 9.40752 0 7.87987 0C6.35223 0 4.88715 0.632141 3.80694 1.75736C2.72673 2.88258 2.11987 4.4087 2.11987 6C2.11987 10.314 7.87987 16 7.87987 16ZM7.87987 9C8.6437 9 9.37624 8.68393 9.91634 8.12132C10.4564 7.55871 10.7599 6.79565 10.7599 6C10.7599 5.20435 10.4564 4.44129 9.91634 3.87868C9.37624 3.31607 8.6437 3 7.87987 3C7.11605 3 6.38351 3.31607 5.84341 3.87868C5.3033 4.44129 4.99987 5.20435 4.99987 6C4.99987 6.79565 5.3033 7.55871 5.84341 8.12132C6.38351 8.68393 7.11605 9 7.87987 9V9Z" fill="#828282"/>
</g>
<defs>
<clipPath id="clip0">
<rect width="15.36" height="16" fill="white" transform="translate(0.199951)"/>
</clipPath>
</defs>
</svg>
