<svg xmlns="http://www.w3.org/2000/svg" width="42" height="42" fill="none"  xmlns:v="https://vecta.io/nano"><path d="M41.764 6.283c-1.248-.34-2.502-.543-3.563-.7-1.78-.262-3.384-.4-4.9-.4-1.64 0-3.198.155-4.627.464-1.9.408-3.452 1.06-4.747 1.992-1.255.907-2.272 2.102-2.967 3.485a9.62 9.62 0 0 0-2.967-3.485c-1.295-.933-2.847-1.584-4.75-1.992-1.43-.31-2.988-.464-4.627-.464-1.515 0-3.118.128-4.898.4l-3.564.7c-.67.18 1.06 31.054 1.06 31.054.162 1.226.162 1.226.38 1.79.226.59.715.972 1.248.972.38 0 .73-.192.99-.54 1.023-1.387 3.685-2.248 6.944-2.248.54 0 1.083.024 1.61.075l1.574.143 6.198.615c.262.106 1.347.106 1.61 0 .004 0 4.082-.423 6.196-.615l1.573-.143a17.48 17.48 0 0 1 1.692-.079c3.235 0 5.864.84 6.862 2.193.26.35.6.543.99.543.53 0 1.02-.382 1.245-.97.217-.56 2.112-32.605 1.438-32.786" fill="#243438"/><path d="M20.805 11.326c-.098-.456-.228-.904-.4-1.34a8.56 8.56 0 0 0-2.991-3.977c-1.32-.963-2.85-1.52-4.38-1.853-3.007-.652-6.135-.516-9.158-.064l-3.438.682C-.014 4.9 2.83 36.76 3.15 36.32c1.654-2.267 5.894-2.895 9.286-2.575l7.8.77c.044.007.083.033.124.05.243.097.496-.157.496-.43v-22.38c.001-.145-.03-.284-.06-.426" fill="#a7a9ac"/><path d="M20.8 9.414c-.1-.444-.2-.88-.36-1.31-.567-1.62-1.533-2.937-2.76-3.89-1.215-.938-2.625-1.485-4.04-1.81-2.774-.638-5.66-.503-8.45-.063-1.062.167-2.128.364-3.172.668-.427.123 2.273 30.93 2.57 30.496 2.246-3.264 5.238-3.537 8.495-3.212 2.436.243 4.884.863 7.202 1.79.04.016.078.03.115.048.224.094.457-.152.457-.42V9.833c0-.144-.028-.28-.056-.42z" fill="#e6e7e8"/><path d="M4.066 6.14l.01.1 1.912-.224c2.507-.25 5.102-.326 7.597.036 1.27.182 2.542.492 3.634 1.023a6.05 6.05 0 0 1 1.656 1.137C18.4 7.447 17.68 6.814 16.8 6.344c-.996-.53-2.155-.84-3.308-1.023-2.273-.36-4.64-.285-6.922-.036l-2.597.377c-.35.07-.23.5.093.478m-.001 3.14l.01.1 1.912-.226c2.507-.247 5.102-.325 7.597.037 1.27.182 2.542.492 3.634 1.023.64.312 1.2.692 1.656 1.137-.476-.766-1.194-1.397-2.074-1.868-.996-.53-2.155-.84-3.308-1.023-2.273-.36-4.64-.285-6.92-.035l-2.597.377c-.348.068-.23.5.094.477m.218 3.135l.01.1 1.912-.226c2.507-.25 5.102-.325 7.596.035 1.27.184 2.54.492 3.632 1.024.64.312 1.2.694 1.66 1.137-.477-.766-1.195-1.396-2.076-1.868-.996-.53-2.154-.84-3.307-1.023-2.273-.36-4.64-.282-6.92-.035l-2.6.374c-.35.07-.23.495.095.48m.304 3.556l.012.098 1.912-.223c2.507-.25 5.102-.326 7.596.035 1.27.184 2.54.494 3.632 1.023a6.42 6.42 0 0 1 1.658 1.137c-.476-.766-1.192-1.398-2.075-1.87-.995-.53-2.154-.838-3.308-1.023-2.273-.36-4.64-.284-6.92-.035l-2.6.377c-.35.07-.23.492.093.48m0 3.137l.012.1 1.912-.225c2.507-.25 5.102-.326 7.596.036 1.27.182 2.54.492 3.632 1.023.64.312 1.2.692 1.658 1.136-.476-.766-1.192-1.397-2.075-1.868-.995-.53-2.154-.84-3.308-1.023-2.273-.362-4.64-.285-6.92-.036l-2.6.377c-.35.072-.23.5.093.48m.223 3.14l.01.097 1.913-.224c2.507-.25 5.1-.325 7.597.035 1.268.184 2.54.494 3.632 1.023.64.312 1.2.693 1.658 1.137-.477-.766-1.194-1.395-2.075-1.868-.995-.53-2.155-.84-3.308-1.023-2.273-.362-4.64-.284-6.92-.038l-2.6.38c-.35.07-.23.492.093.482" fill="#243438"/><path d="M20.928 11.326c.097-.46.23-.908.4-1.34.582-1.592 1.624-2.976 2.992-3.977 1.32-.963 2.85-1.52 4.38-1.853 3.006-.652 6.135-.516 9.156-.064l3.44.682c.463.127-2.38 31.93-2.703 31.49-1.654-2.27-5.894-2.838-9.286-2.52l-7.8.77c-.043.007-.083.033-.124.05-.243.097-.496-.157-.496-.43v-22.38c-.001-.145.03-.284.06-.426" fill="#a7a9ac"/><path d="M20.922 9.414a10.04 10.04 0 0 1 .361-1.309c.566-1.62 1.532-2.94 2.76-3.89 1.216-.938 2.632-1.485 4.042-1.81 2.774-.638 5.66-.503 8.448-.063 1.06.167 2.13.364 3.17.67.426.123-2.27 30.93-2.568 30.496-2.245-3.263-5.237-3.537-8.493-3.212-2.436.24-4.882.863-7.204 1.79l-.113.048c-.224.094-.46-.152-.46-.42V9.834c.001-.144.03-.28.056-.42z" fill="#e6e7e8"/><path d="M37.67 6.14l-.01.1-1.913-.224c-2.506-.25-5.102-.326-7.596.036-1.27.182-2.54.492-3.632 1.023-.64.3-1.2.692-1.658 1.137.476-.765 1.194-1.398 2.075-1.868.996-.53 2.153-.84 3.308-1.023 2.273-.36 4.633-.285 6.92-.036l2.598.377c.35.07.23.5-.094.478m.002 3.14l-.01.1-1.913-.226c-2.506-.247-5.102-.325-7.596.037-1.27.182-2.54.492-3.632 1.023-.64.312-1.2.692-1.658 1.137.476-.766 1.194-1.397 2.075-1.868.996-.53 2.153-.84 3.308-1.023 2.273-.36 4.633-.285 6.92-.035l2.598.377c.35.068.23.5-.094.477m-.222 3.135l-.013.1-1.913-.226c-2.506-.25-5.1-.325-7.595.035-1.27.184-2.542.492-3.634 1.024-.64.312-1.2.694-1.656 1.137.476-.766 1.192-1.396 2.074-1.868.995-.53 2.153-.84 3.314-1.023 2.27-.36 4.633-.282 6.92-.036l2.598.375c.35.07.23.495-.093.48m-.31 3.556l-.01.098-1.912-.223c-2.506-.25-5.102-.326-7.596.035-1.27.184-2.542.494-3.634 1.023a6.42 6.42 0 0 0-1.658 1.137c.476-.766 1.194-1.398 2.076-1.87.995-.53 2.153-.838 3.307-1.023 2.273-.36 4.633-.284 6.922-.035l2.597.375c.35.072.23.495-.094.482m.002 3.137l-.01.1-1.912-.225c-2.506-.25-5.102-.326-7.596.036-1.27.182-2.542.492-3.634 1.023-.64.312-1.2.692-1.658 1.136.476-.766 1.194-1.397 2.076-1.868.995-.53 2.153-.84 3.307-1.023 2.273-.362 4.633-.285 6.922-.036l2.597.376c.35.073.23.492-.094.48m-.22 3.14l-.01.097-1.913-.224c-2.507-.25-5.102-.325-7.597.035-1.27.184-2.54.494-3.632 1.023-.64.312-1.2.693-1.657 1.137.476-.766 1.194-1.395 2.074-1.868.996-.53 2.154-.84 3.314-1.023 2.27-.362 4.633-.284 6.92-.038l2.598.38c.35.07.23.492-.096.482" fill="#243438"/><path d="M22.72 34.054c0 .313-1.587.566-1.855.566s-1.854-.254-1.854-.566l1.37-24.307c0-.313.218-.567.486-.567s.486.254.486.567l1.37 24.307z" fill="#a7a9ac"/></svg>