<svg width="71" height="68" viewBox="0 0 71 68" fill="none" xmlns="http://www.w3.org/2000/svg">
<path d="M63.9 21.3H43.9774L47.964 9.34715C48.6811 7.18875 48.319 4.79605 46.9878 2.95005C45.6565 1.10405 43.4981 0 41.2226 0H35.5C34.4456 0 33.4481 0.4686 32.77 1.278L16.085 21.3H7.1C3.18435 21.3 0 24.4844 0 28.4V60.35C0 64.2656 3.18435 67.45 7.1 67.45H54.3398C55.7843 67.4452 57.1933 67.0021 58.3805 66.1794C59.5678 65.3566 60.4773 64.1929 60.989 62.8421L70.7763 36.746C70.9249 36.3475 71.0007 35.9254 71 35.5V28.4C71 24.4844 67.8156 21.3 63.9 21.3ZM7.1 28.4H14.2V60.35H7.1V28.4ZM63.9 34.8574L54.3398 60.35H21.3V26.1351L37.1614 7.1H41.2297L35.6846 23.7246C35.5046 24.2583 35.4544 24.8271 35.5381 25.384C35.6219 25.9409 35.8372 26.4698 36.1662 26.9269C36.4952 27.384 36.9284 27.756 37.4299 28.0122C37.9315 28.2684 38.4868 28.4013 39.05 28.4H63.9V34.8574Z" fill="white"/>
</svg>
