<svg width="71" height="71" viewBox="0 0 71 71" fill="none" xmlns="http://www.w3.org/2000/svg">
<path d="M7.1 71H10.65V22.4211H7.1C5.21696 22.4211 3.41105 23.2085 2.07954 24.61C0.748033 26.0116 0 27.9126 0 29.8947V63.5263C0 65.5085 0.748033 67.4094 2.07954 68.811C3.41105 70.2126 5.21696 71 7.1 71ZM63.9 22.4211H39.05L43.0331 9.83537C43.3885 8.71213 43.4853 7.51608 43.3156 6.34574C43.1458 5.17539 42.7144 4.06424 42.0568 3.1038C41.3991 2.14336 40.5342 1.36112 39.5331 0.821492C38.532 0.281868 37.4235 0.000306842 36.2988 0H35.5L17.75 20.3209V71H56.8L70.6876 38.8781L71 37.3684V29.8947C71 27.9126 70.252 26.0116 68.9205 24.61C67.589 23.2085 65.783 22.4211 63.9 22.4211Z" fill="white"/>
</svg>
